<?xml version="1.0" standalone="no"?>
<!DOCTYPE svg PUBLIC "-//W3C//DTD SVG 20010904//EN"
 "http://www.w3.org/TR/2001/REC-SVG-20010904/DTD/svg10.dtd">
<svg version="1.0" xmlns="http://www.w3.org/2000/svg"
 width="512.000000pt" height="512.000000pt" viewBox="0 0 512.000000 512.000000"
 preserveAspectRatio="xMidYMid meet">

<g transform="translate(0.000000,512.000000) scale(0.100000,-0.100000)"
fill="#000000" stroke="none">
<path d="M2351 5106 c-48 -26 -50 -43 -51 -327 l0 -265 -77 -18 c-232 -55
-435 -162 -596 -315 -245 -233 -359 -523 -327 -833 25 -243 88 -387 246 -563
172 -192 366 -304 910 -526 416 -169 558 -250 640 -365 71 -99 88 -178 63
-296 -23 -108 -78 -186 -179 -253 -124 -83 -275 -121 -439 -112 -284 15 -569
135 -827 348 -71 59 -92 67 -136 50 -14 -5 -94 -100 -186 -221 -175 -229 -182
-244 -141 -301 47 -67 264 -230 410 -308 149 -80 380 -162 539 -190 36 -7 73
-14 83 -17 16 -5 17 -26 17 -259 0 -176 4 -262 12 -280 23 -50 48 -55 283 -55
l217 0 29 29 29 29 0 266 0 266 23 4 c306 67 501 169 683 358 202 210 297 429
311 714 7 154 -6 257 -47 378 -49 147 -94 221 -194 322 -196 196 -386 303
-881 494 -587 227 -760 372 -743 619 3 43 15 89 33 129 93 207 420 325 736
267 194 -36 343 -100 532 -228 70 -48 136 -87 147 -87 51 0 68 22 195 250 69
125 129 237 131 248 23 87 -289 298 -577 390 -101 33 -279 72 -323 72 l-26 0
0 271 0 271 -29 29 -29 29 -219 0 c-162 -1 -224 -4 -242 -14z"/>
</g>
</svg>
