<svg width="35" height="33" viewBox="0 0 35 33" fill="none" xmlns="http://www.w3.org/2000/svg">
<g clip-path="url(#clip0)">
<path d="M2.18744 2.24541C-0.562972 4.93903 -5.5278e-05 7.80041 -5.5278e-05 16.4932C-5.5278e-05 23.7119 -1.33589 30.9485 5.65536 32.6521C7.83849 33.1815 27.1818 33.1815 29.362 32.6494C32.2729 31.9413 34.6412 29.7151 34.9649 25.8335C35.0102 25.2918 35.0102 7.70416 34.9635 7.15141C34.6193 3.01678 31.9199 0.633908 28.3631 0.151283C27.5479 0.0399083 27.3845 0.00690826 23.202 3.32615e-05C8.3664 0.00690826 5.11432 -0.615967 2.18744 2.24541V2.24541Z" fill="url(#paint0_linear)"/>
<path d="M17.4971 4.31596C12.2019 4.31596 7.17356 3.87183 5.25293 8.51933C4.4596 10.4388 4.57481 12.9317 4.57481 16.5012C4.57481 19.6335 4.46835 22.5773 5.25293 24.4817C7.16918 29.132 12.2383 28.6865 17.4942 28.6865C22.5648 28.6865 27.7929 29.1842 29.7369 24.4817C30.5317 22.543 30.415 20.0872 30.415 16.5012C30.415 11.741 30.6936 8.66783 28.245 6.36058C25.7659 4.02308 22.4131 4.31596 17.4913 4.31596H17.4971ZM16.3392 6.51183C27.3846 6.49533 28.7904 5.33759 28.0146 21.421C27.739 27.1093 23.1452 26.4851 17.4986 26.4851C7.20272 26.4851 6.90668 26.2073 6.90668 16.4957C6.90668 6.67133 7.72335 6.51733 16.3392 6.50908V6.51183ZM24.395 8.53446C23.539 8.53446 22.8448 9.18896 22.8448 9.99608C22.8448 10.8032 23.539 11.4577 24.395 11.4577C25.2511 11.4577 25.9452 10.8032 25.9452 9.99608C25.9452 9.18896 25.2511 8.53446 24.395 8.53446V8.53446ZM17.4971 10.2436C13.8323 10.2436 10.8617 13.0458 10.8617 16.5012C10.8617 19.9566 13.8323 22.7575 17.4971 22.7575C21.1619 22.7575 24.1311 19.9566 24.1311 16.5012C24.1311 13.0458 21.1619 10.2436 17.4971 10.2436V10.2436ZM17.4971 12.4395C23.1919 12.4395 23.1992 20.563 17.4971 20.563C11.8038 20.563 11.795 12.4395 17.4971 12.4395Z" fill="white"/>
</g>
<defs>
<linearGradient id="paint0_linear" x1="2.25456" y1="30.8923" x2="33.1319" y2="2.54866" gradientUnits="userSpaceOnUse">
<stop stop-color="#FFDD55"/>
<stop offset="0.5" stop-color="#FF543E"/>
<stop offset="1" stop-color="#C837AB"/>
</linearGradient>
<clipPath id="clip0">
<rect width="35" height="33" fill="white"/>
</clipPath>
</defs>
</svg>
