<svg width="32" height="19" viewBox="0 0 32 19" fill="none" xmlns="http://www.w3.org/2000/svg">
<path d="M15.6576 18.8351H17.5698C17.5698 18.8351 18.1478 18.7691 18.4418 18.4412C18.7138 18.14 18.7038 17.5749 18.7038 17.5749C18.7038 17.5749 18.6658 14.9285 19.8579 14.5386C21.032 14.155 22.5401 17.0963 24.1382 18.2287C25.3463 19.0847 26.2644 18.897 26.2644 18.897L30.5387 18.8351C30.5387 18.8351 32.7749 18.6928 31.7148 16.8797C31.6288 16.7312 31.0968 15.539 28.5366 13.0886C25.8564 10.5226 26.2164 10.9393 29.4446 6.50254C31.4108 3.80046 32.1968 2.15034 31.9508 1.44491C31.7168 0.772488 30.2707 0.949876 30.2707 0.949876L25.4623 0.978753C25.4623 0.978753 25.1063 0.929249 24.8403 1.0922C24.5823 1.25309 24.4163 1.62436 24.4163 1.62436C24.4163 1.62436 23.6542 3.71589 22.6381 5.4939C20.496 9.24586 19.6379 9.44388 19.2879 9.2108C18.4738 8.66832 18.6778 7.02851 18.6778 5.86518C18.6778 2.22872 19.2119 0.71267 17.6358 0.320766C17.1117 0.190819 16.7277 0.104188 15.3896 0.0897493C13.6735 0.0711854 12.2194 0.0959372 11.3973 0.51053C10.8493 0.786926 10.4272 1.40366 10.6852 1.43872C11.0033 1.48204 11.7233 1.6388 12.1053 2.17509C12.5994 2.86608 12.5814 4.42132 12.5814 4.42132C12.5814 4.42132 12.8654 8.70133 11.9193 9.23349C11.2693 9.59858 10.3792 8.85396 8.46907 5.44852C7.491 3.70558 6.75095 1.777 6.75095 1.777C6.75095 1.777 6.60894 1.4181 6.35492 1.22627C6.0469 0.993191 5.61486 0.918936 5.61486 0.918936L1.04252 0.947813C1.04252 0.947813 0.356473 0.96844 0.104454 1.27578C-0.119562 1.55011 0.0864529 2.11527 0.0864529 2.11527C0.0864529 2.11527 3.66672 10.7516 7.71902 15.1059C11.4373 19.0971 15.6576 18.8351 15.6576 18.8351Z" fill="#1E88E5"/>
</svg>
